<svg width="1440" height="613" viewBox="0 0 1440 613" fill="none" xmlns="http://www.w3.org/2000/svg">
<path d="M1590.82 297.16L1445.06 369.994L1154.47 406.325H1154.01L1008.26 479.158L717.667 515.489H717.206L571.45 588.322L375.88 612.829H381.876L573.295 588.836H573.756L719.512 516.003L1010.1 479.672H1010.56L1156.32 406.839L1446.9 370.508H1447.37L1593.12 297.674L1883.71 261.343H1884.17L1980.11 213.359V211.817L1881.4 260.829L1590.82 297.16ZM1554.38 288.077L1408.62 360.911L1118.03 397.242H1117.57L971.816 470.075L681.228 506.406H680.767L534.55 579.411L266.102 613H272.098L535.934 579.925H536.395L682.15 507.092L972.739 470.761H973.2L1118.96 397.927L1409.54 361.596H1410L1555.76 288.763L1846.35 252.432H1846.81L1979.19 186.282V184.74L1844.96 251.918L1554.38 288.077ZM1699.67 105.908L1553.91 178.742L1263.33 215.073H1262.87L1117.11 287.906L826.522 324.237H826.061L680.305 397.07L389.717 433.401H389.256L243.501 506.235L-47.0875 542.566H-47.5487L-187.308 612.486H-184.54L-45.7038 542.909L244.884 506.578H245.346L391.101 433.744L681.689 397.413H682.15L827.906 324.58L1118.49 288.249H1118.96L1264.71 215.415L1555.3 179.084H1555.76L1701.52 106.422L1979.19 71.6338V70.9483L1699.67 105.908ZM1736.11 114.991L1590.35 187.824L1299.77 224.155H1299.3L1153.55 296.989L862.961 333.32H862.5L716.744 406.153L426.156 442.484H425.695L279.94 515.318L-10.6487 551.649H-11.1099L-132.88 612.486H-130.113L-9.26492 552.163L281.323 515.832H281.785L427.54 442.998L718.128 406.667H718.589L864.345 333.834L1154.93 297.503H1155.39L1301.15 224.67L1591.74 188.339H1592.2L1737.95 115.505L1979.19 85.3436V84.6581L1736.11 114.991ZM1917.84 379.076L1772.09 451.91L1481.5 488.241H1481.04L1335.28 561.074L1044.69 597.405H1044.23L1013.33 612.829H1016.1L1045.62 597.919L1336.2 561.588H1336.67L1482.42 488.755L1773.01 452.424H1773.47L1919.23 379.59L1978.73 372.221V371.536L1917.84 379.076ZM1954.28 388.33L1808.53 461.164L1517.94 497.495H1517.48L1371.72 570.328L1081.13 606.659H1080.67L1068.22 612.829H1070.99L1082.52 607.002L1373.1 570.671H1373.57L1519.32 497.838L1809.91 461.506H1810.37L1956.13 388.673L1979.19 385.76V385.074L1954.28 388.33ZM1663.69 315.326L1517.94 388.159L1227.35 424.49H1226.89L1081.13 497.323L790.544 533.654H790.083L644.328 606.488L594.513 612.657H600.509L646.173 607.002H646.634L792.389 534.169L1082.98 497.838H1083.44L1229.19 425.004L1519.78 388.673H1520.24L1666 315.84L1956.59 279.509H1957.05L1980.11 268.027V266.484L1955.2 278.995L1663.69 315.326ZM1627.25 306.243L1481.5 379.076L1190.91 415.407H1190.45L1044.23 488.412L753.644 524.743H753.183L607.428 597.576L484.735 613H490.731L609.273 598.262H609.734L755.489 525.429L1046.08 489.098H1046.54L1192.29 416.264L1482.88 379.933H1483.34L1629.1 307.1L1919.69 270.769H1920.15L1979.65 241.121V239.579L1918.3 270.255L1627.25 306.243ZM1881.4 151.493L1735.65 224.327L1445.06 260.658H1444.6L1298.84 333.491L1008.26 369.822H1007.79L862.038 442.656L571.45 478.987H570.989L425.234 551.82L134.645 588.151H134.184L85.2915 612.657H88.059L136.029 588.665L426.617 552.334H427.079L572.834 479.501L863.422 443.17H863.883L1009.64 370.336L1300.23 334.005H1300.69L1446.44 261.172L1737.03 224.841H1737.49L1883.25 152.008L1979.19 140.011V139.326L1881.4 151.493ZM1954.28 169.659L1808.53 242.492L1517.94 278.823H1517.48L1371.72 351.657L1081.13 387.988H1080.67L934.916 460.821L644.328 497.152H643.867L498.111 569.985L207.523 606.316H207.062L194.608 612.486H197.376L208.907 606.659L499.495 570.328H499.956L645.712 497.495L936.3 461.164H936.761L1082.52 388.33L1373.1 351.999H1373.57L1519.32 279.166L1809.91 242.835H1810.37L1956.13 170.002L1979.19 167.088V166.403L1954.28 169.659ZM1917.84 160.576L1772.09 233.41L1481.5 269.741H1481.04L1335.74 342.745L1045.16 379.076H1044.69L898.938 452.081L608.35 488.412H607.889L462.134 561.245L171.546 597.576H171.084L140.18 613H142.948L172.468 598.091L463.056 561.759H463.517L609.273 488.926L899.861 452.595H900.322L1046.08 379.762L1336.67 343.431H1337.13L1482.88 270.597L1773.47 234.266H1773.93L1919.69 161.09L1979.19 153.721V153.036L1917.84 160.576ZM1772.09 124.074L1626.79 197.079L1336.2 233.41H1335.74L1189.99 306.243L898.938 342.745H898.477L752.722 415.579L462.134 451.91H461.672L315.917 524.743L25.3289 561.074H24.8677L-78.4526 612.829H-75.6851L26.7127 561.588L317.301 525.257H317.762L463.517 452.424L754.106 416.093H754.567L900.322 343.259L1190.91 306.928H1191.37L1337.13 234.095L1627.72 197.764H1628.18L1773.93 124.931L1978.73 99.2248V98.5393L1772.09 124.074ZM1663.69 96.8255L1517.48 169.659L1226.89 205.99H1226.43L1080.67 278.823L790.083 315.154H789.622L643.867 387.988L353.278 424.319H352.817L207.062 497.495L-83.5263 533.826H-83.9876L-229.743 606.659L-279.558 612.829H-273.562L-227.898 607.173H-227.437L-81.6813 534.34L208.907 498.009H209.368L355.123 425.176L645.712 388.845H646.173L791.928 316.011L1082.52 279.68H1082.98L1228.73 206.847L1519.32 170.516H1519.78L1665.54 97.6824L1956.13 61.3514H1956.59L1979.65 49.8694V47.9843L1954.74 60.4945L1663.69 96.8255ZM1808.53 133.328L1662.77 206.161L1372.18 242.492H1371.72L1226.43 315.326L935.839 351.657H935.377L789.622 424.49L499.034 460.821H498.573L352.817 533.654L62.229 569.985H61.7678L-23.5637 613H-20.7962L63.6128 570.842L354.201 534.511H354.662L500.418 461.678L791.006 425.347H791.467L937.222 352.514L1227.81 316.183H1228.27L1374.03 243.349L1664.62 207.018H1665.08L1810.83 133.671L1979.65 112.592V111.906L1808.53 133.328ZM1881.4 369.994L1735.65 442.827L1445.06 479.158H1444.6L1298.84 551.991L1008.26 588.322H1007.79L958.901 613H961.669L1009.64 589.008L1300.23 552.677H1300.69L1446.44 479.843L1737.03 443.512H1737.49L1883.25 370.679L1979.19 358.683V357.997L1881.4 369.994ZM1917.84 51.2404L1627.25 87.5714H1626.79L1481.04 160.405L1190.45 196.736H1189.99L1044.23 269.569L753.644 305.9H753.183L607.428 378.734L316.84 415.065H316.378L170.623 488.412L-119.965 524.743H-120.426L-266.182 597.576L-388.875 613H-382.878L-264.337 598.262H-263.875L-118.12 525.429L172.468 489.098H172.929L318.685 416.264L609.273 379.933H609.734L755.489 307.1L1046.08 270.769H1046.54L1192.29 197.935L1482.88 161.604H1483.34L1629.1 88.771L1919.69 52.44H1920.15L1979.65 22.7926V20.5647L1917.84 51.2404ZM1844.96 142.411L1699.21 215.244L1408.62 251.575H1408.16L1262.4 324.408L971.816 360.739H971.355L825.6 433.573L535.011 469.904H534.55L388.795 542.737L98.2066 579.068H97.7453L30.8639 612.657H33.6314L99.5903 579.582L390.179 543.251H390.64L536.395 470.418L826.983 434.087H827.445L973.2 361.254L1263.79 324.923H1264.25L1410 252.089L1700.59 215.758H1701.05L1846.81 142.925L1979.19 126.302V125.616L1844.96 142.411ZM1772.09 561.245L1668.77 613H1671.53L1773.93 561.759L1978.73 536.054V535.368L1772.09 561.245ZM1808.53 570.328L1723.19 613H1725.96L1810.37 570.842L1979.19 549.763V549.078L1808.53 570.328ZM1699.67 543.08L1559.91 613H1562.68L1701.52 543.423L1979.19 508.634V507.948L1699.67 543.08ZM1844.96 579.411L1778.08 613H1780.85L1846.81 579.925L1979.19 563.302V562.616L1844.96 579.411ZM1663.69 533.826L1517.94 606.659L1468.12 612.829H1474.12L1519.78 607.173H1520.24L1666 534.34L1956.59 498.009H1957.05L1980.11 486.527V484.985L1955.2 497.495L1663.69 533.826ZM1954.28 606.831L1941.83 613H1944.59L1956.13 607.173L1979.19 604.26V603.574L1954.28 606.831ZM1917.84 597.748L1886.94 613.171H1889.71L1919.23 598.262L1978.73 590.893V590.207L1917.84 597.748ZM1844.96 360.911L1699.21 433.744L1408.62 470.075H1408.16L1262.4 542.909L971.816 579.24H971.355L904.474 612.829H907.241L973.2 579.754L1263.79 543.423H1264.25L1410 470.589L1700.59 434.258H1701.05L1846.81 361.425L1979.19 344.802V344.116L1844.96 360.911ZM1881.4 588.665L1832.51 613.171H1835.28L1883.25 589.179L1979.19 577.183V576.498L1881.4 588.665ZM1627.25 524.743L1481.5 597.576L1358.81 613H1364.8L1483.34 598.262H1483.8L1629.56 525.429L1920.15 489.098H1920.61L1980.11 459.45V457.908L1917.84 488.412L1627.25 524.743ZM1736.11 333.663L1590.35 406.496L1299.77 442.827H1299.3L1153.55 515.66L862.961 551.991H862.5L740.729 612.829H743.497L864.345 552.505L1154.93 516.174H1155.39L1301.15 443.341L1591.74 407.01H1592.2L1737.95 334.177L1979.19 304.015V303.33L1736.11 333.663ZM1808.53 351.828L1662.77 424.661L1372.18 460.992H1371.72L1226.43 533.997L935.839 570.328H935.377L850.046 613H852.813L937.222 570.842L1227.81 534.511H1228.27L1374.03 461.678L1664.62 425.347H1665.08L1810.83 352.514L1979.65 331.435V330.749L1808.53 351.828ZM1772.09 342.745L1626.33 415.579L1335.74 451.91H1335.28L1189.53 524.743L898.938 561.074H898.477L795.157 612.829H797.925L900.322 561.588L1190.91 525.257H1191.37L1337.13 452.424L1627.72 416.093H1628.18L1773.93 343.259L1978.73 317.554V316.868L1772.09 342.745ZM1699.67 324.58L1553.91 397.413L1263.33 433.744H1262.87L1117.11 506.578L826.522 542.909H826.061L686.302 612.829H689.069L827.906 543.251L1118.49 506.92H1118.96L1264.71 434.087L1555.3 397.756H1555.76L1701.52 324.923L1979.19 290.134V289.448L1699.67 324.58ZM1590.82 515.66L1445.06 588.494L1249.49 613H1255.49L1446.9 589.008H1447.37L1593.12 516.174L1883.71 479.843H1884.17L1980.11 431.859V430.317L1881.4 479.329L1590.82 515.66ZM1554.38 506.578L1408.62 579.411L1140.17 613H1146.17L1410 579.925H1410.47L1556.22 507.092L1846.81 470.761H1847.27L1979.65 404.611V403.068L1845.43 470.247L1554.38 506.578ZM1736.11 552.163L1614.34 613H1617.11L1737.95 552.677L1979.19 522.515V521.83L1736.11 552.163ZM-300.314 261.172L-9.72616 224.841H-9.26492L136.49 152.008L427.079 115.677H427.54L573.295 42.8432L863.883 6.51216H864.345L876.798 0.342745H874.031L862.5 6.16941L571.911 42.5004H571.45L425.695 115.334L135.107 151.665H134.645L-11.1099 224.498L-301.698 260.829H-302.159L-447.915 333.663L-470.977 336.576V337.261L-446.07 334.177L-300.314 261.172ZM-373.192 352.342L-227.437 279.509L63.1515 243.178H63.6128L209.368 170.344L499.956 134.013H500.418L646.173 61.18L936.761 24.849H937.222L986.115 0H983.347L935.377 23.9922L644.789 60.3232H644.328L498.573 133.157L207.984 169.488H207.523L61.7678 242.321L-228.82 278.652H-229.282L-375.037 351.485L-470.977 363.481V364.167L-373.192 352.342ZM-119.043 416.093L26.7127 343.259L317.301 306.928H317.762L463.517 234.095L754.106 197.764H754.567L900.322 124.931L1190.91 88.5997H1191.37L1337.59 15.4235L1460.28 0H1454.28L1335.74 14.738H1335.28L1189.53 87.5714L898.938 123.902H898.477L753.183 197.079L462.595 233.41H462.134L316.378 306.243L25.7902 342.574H25.3289L-120.426 415.579L-411.015 451.91H-411.476L-470.977 481.729V483.271L-409.631 452.424L-119.043 416.093ZM-155.02 407.01L-9.26492 334.177L281.323 297.846H281.785L427.54 225.012L718.128 188.681H718.589L864.345 115.848L1154.93 79.5169H1155.39L1301.15 6.68353L1350.96 0H1344.97L1299.3 5.6553H1298.84L1153.09 78.4887L862.5 114.82H862.038L716.283 187.653L425.695 223.984H425.234L279.478 296.817L-11.1099 333.148H-11.5712L-157.327 405.982L-447.915 442.313H-448.376L-471.438 453.795V455.337L-446.531 442.827L-155.02 407.01ZM-396.255 0H-401.79L-447.453 5.6553L-447.915 5.82667L-470.977 17.3086V18.851L-446.07 6.34079L-396.255 0ZM-263.875 379.59L-118.581 306.757L172.007 270.426H172.468L318.223 197.593L608.812 161.262H609.273L755.028 88.4283L1045.62 52.0973H1046.08L1149.86 0H1147.09L1044.69 51.2404L754.106 87.5714H753.644L607.889 160.405L317.301 196.736H316.84L171.084 269.569L-119.504 305.9H-119.965L-265.721 378.734L-470.977 404.782V405.468L-263.875 379.59ZM-300.314 370.508L-154.559 297.674L136.029 261.343H136.49L282.246 188.51L572.834 152.179H573.295L719.051 79.3455L1009.64 43.0145H1010.1L1094.97 0H1092.2L1007.79 42.1577L717.206 78.4887H716.744L570.989 151.322L280.401 187.653H279.94L134.184 260.486L-156.404 296.817H-156.865L-302.621 369.651L-470.977 391.072V391.758L-300.314 370.508ZM-336.753 361.425L-190.998 288.592L99.5903 252.261H100.052L245.807 179.427L536.395 143.096H536.856L682.15 69.92L972.739 33.589H973.2L1040.54 0H1037.78L971.816 33.0749L681.228 69.4059H680.767L534.55 142.411L243.962 178.742H243.501L97.7453 251.575L-192.843 287.906H-193.304L-339.059 360.739L-470.977 377.534V378.219L-336.753 361.425ZM-373.192 570.842L-227.437 498.009L63.1515 461.678H63.6128L209.368 388.845L499.956 352.514H500.418L646.173 279.68L936.761 243.349H937.222L1082.98 170.516L1373.57 134.185H1374.03L1519.78 61.3514L1810.37 25.0204H1810.83L1859.72 0H1856.96L1808.99 23.9922L1518.4 60.3232H1517.94L1372.18 133.157L1081.59 169.488H1081.13L935.377 242.321L644.789 278.652H644.328L498.573 351.485L207.984 387.816H207.523L61.7678 460.65L-228.82 496.981H-229.282L-375.037 569.814L-470.977 581.81V582.496L-373.192 570.842ZM-409.631 561.759L-263.875 488.926L26.7127 452.595H27.1739L172.929 379.762L463.517 343.431H463.979L609.734 270.597L900.322 234.266H900.783L1046.08 161.09L1336.67 124.759H1337.13L1482.88 51.9259L1773.47 15.5949H1773.93L1804.84 0.171373H1802.07L1772.55 15.0808L1481.96 51.4118H1481.5L1335.74 124.245L1045.16 160.576H1044.69L898.938 233.41L608.35 269.741H607.889L462.134 342.745L171.546 379.076H171.084L25.3289 451.91L-265.259 488.241H-265.721L-411.476 561.074L-470.977 568.786V569.471L-409.631 561.759ZM-300.314 479.843L-9.72616 443.512H-9.26492L136.49 370.679L427.079 334.348H427.54L573.295 261.515L863.883 225.184H864.345L1010.1 152.35L1300.69 116.019H1301.15L1446.9 43.1859L1737.49 6.85491H1737.95L1750.41 0.685491H1747.64L1736.11 6.51216L1445.52 42.8432H1445.06L1299.3 115.677L1008.72 152.008H1008.26L862.5 224.841L571.911 261.172H571.45L425.695 334.005L135.107 370.336H134.645L-11.1099 443.17L-301.698 479.501H-302.159L-447.915 552.163L-470.977 555.076V555.761L-446.07 552.677L-300.314 479.843ZM-82.6038 425.176L63.1515 352.342L353.74 316.011H354.201L499.956 243.178L790.544 206.847H791.006L937.222 133.671L1227.81 97.3397H1228.27L1374.03 24.5063L1569.6 0H1563.6L1372.18 23.9922H1371.72L1226.43 96.8255L935.839 133.157H935.377L789.622 205.99L499.034 242.321H498.573L352.817 315.326L62.229 351.657H61.7678L-83.9876 424.49L-374.576 460.821H-375.037L-470.977 508.977V510.519L-373.192 461.678L-82.6038 425.176ZM-300.314 589.008L-154.559 516.174L136.029 479.843H136.49L282.246 407.01L572.834 370.679H573.295L719.051 297.846L1009.64 261.515H1010.1L1155.86 188.681L1446.44 152.35H1446.9L1592.66 79.5169L1883.25 43.1859H1883.71L1968.58 0H1965.81L1881.4 42.1577L1590.82 78.4887H1590.35L1444.6 151.322L1154.01 187.653H1153.55L1007.79 260.486L717.206 296.817H716.744L570.989 369.651L280.401 405.982H279.94L134.184 478.815L-156.404 515.146H-156.865L-302.621 587.98L-470.977 609.744V610.429L-300.314 589.008ZM-46.165 434.258L99.5903 361.425L390.179 325.094H390.64L536.395 252.261L826.983 215.93H827.445L973.2 143.096L1263.79 106.765H1264.25L1410 33.9318L1678.45 0H1672.46L1408.62 33.0749H1408.16L1262.4 105.908L971.816 142.239H971.355L825.6 215.073L535.011 251.404H534.55L388.795 324.237L98.2066 360.568H97.7453L-48.01 433.401L-338.598 469.732H-339.059L-470.977 536.396V537.939L-336.753 470.761L-46.165 434.258ZM-227.437 388.673L-81.6813 315.84L208.907 279.509H209.368L355.123 206.675L645.712 170.344H646.173L791.928 97.511L1082.52 61.18H1082.98L1204.29 0H1201.52L1080.67 60.3232L790.083 96.6542H789.622L643.867 169.659L353.278 205.99H352.817L207.062 278.995L-83.5263 315.326H-83.9876L-229.743 388.159L-470.977 418.492V419.177L-227.437 388.673ZM-336.753 579.925L-190.998 507.092L99.5903 470.761H100.052L245.807 397.927L536.395 361.596H536.856L682.612 288.763L973.2 252.432H973.661L1119.42 179.599L1410 143.268H1410.47L1556.22 70.4342L1846.81 34.1032H1847.27L1914.15 0H1911.38L1845.43 33.0749L1554.84 69.4059H1554.38L1408.62 142.239L1118.03 178.57H1117.57L971.816 251.404L681.228 287.735H680.767L534.55 360.911L243.962 397.242H243.501L97.7453 470.075L-192.843 506.406H-193.304L-339.059 579.24L-470.977 596.034V596.72L-336.753 579.925ZM-409.631 343.259L-263.875 270.426L26.7127 234.095H27.1739L172.929 161.09L463.517 124.759H463.979L609.734 51.9259L900.322 15.5949H900.783L931.687 0.171373H928.92L898.938 14.9094L608.35 51.2404H607.889L462.134 124.074L171.546 160.405H171.084L25.3289 233.238L-265.259 269.569H-265.721L-411.476 342.745L-470.977 350.114V350.8L-409.631 343.259ZM-336.753 142.925L-190.998 70.0914L99.5903 33.7604H100.052L166.933 0H164.166L98.2066 33.0749L-192.382 69.4059H-192.843L-338.598 142.411L-470.977 158.862V159.548L-336.753 142.925ZM-263.875 161.09L-118.12 88.2569L172.468 51.9259H172.929L276.25 0H273.482L171.084 51.2404L-119.504 87.5714H-119.965L-266.182 160.576L-470.977 186.282V186.968L-263.875 161.09ZM-227.437 170.173L-81.6813 97.3397L208.907 61.0087H209.368L330.677 0H327.91L207.062 60.3232L-83.5263 96.8255H-83.9876L-229.743 169.659L-470.977 199.82V200.506L-227.437 170.173ZM-300.314 152.008L-154.559 79.1742L136.029 42.8432H136.49L221.822 0H219.054L134.645 42.1577L-155.943 78.4887H-156.404L-302.159 151.493L-470.977 172.572V173.258L-300.314 152.008ZM-191.459 179.256L-45.7038 106.422L244.884 70.0914H245.346L385.566 0H382.337L243.501 69.5773L-47.0875 105.908H-47.5487L-193.304 178.742L-470.977 213.53V214.216L-191.459 179.256ZM-286.938 0H-292.934L-411.015 14.738H-411.476L-470.977 44.5569V46.0992L-409.631 15.4235L-286.938 0ZM-68.305 0H-74.3013L-338.598 33.0749H-339.059L-470.977 99.2248V100.767L-336.753 33.589L-68.305 0ZM-177.622 0H-183.618L-374.576 23.9922H-375.037L-470.977 71.9765V73.5189L-373.192 24.6777L-177.622 0ZM-155.02 188.51L-9.26492 115.677L281.323 79.3455H281.785L427.54 6.51216L477.355 0H471.359L425.695 5.6553H425.234L279.478 78.4887L-11.1099 114.82H-11.5712L-157.327 187.653L-447.915 223.984H-448.376L-471.438 235.466V237.008L-446.531 224.498L-155.02 188.51ZM-373.192 133.671L-227.437 60.8373L63.1515 24.5063H63.6128L112.505 0H109.738L61.7678 23.9922L-228.82 60.3232H-229.282L-375.037 133.328L-470.977 145.324V146.009L-373.192 133.671ZM-46.165 215.758L99.5903 142.925L390.179 106.594H390.64L536.395 33.7604L804.843 0H798.847L535.011 33.0749H534.55L388.795 105.908L98.2066 142.239H97.7453L-48.01 215.073L-338.598 251.404H-339.059L-470.977 317.725V319.267L-336.753 252.089L-46.165 215.758ZM-119.043 197.593L27.1739 124.588L317.762 88.2569H318.223L463.979 15.4235L586.672 0H580.675L462.134 14.738H461.672L315.917 87.5714L25.3289 123.902H24.8677L-120.426 197.079L-411.015 233.41H-411.476L-470.977 263.228V264.771L-409.631 234.095L-119.043 197.593ZM-82.6038 206.675L63.6128 133.671L354.201 97.3397H354.662L500.418 24.5063L695.988 0H689.992L498.573 23.9922H498.111L352.356 96.8255L61.7678 133.157H61.3065L-84.4488 205.99L-375.037 242.321H-375.498L-470.977 290.477V292.019L-373.192 243.178L-82.6038 206.675ZM-409.631 124.588L-263.875 51.7545L26.7127 15.4235H27.1739L58.0777 0H54.849L25.3289 14.9094L-265.259 51.2404H-265.721L-411.476 124.074L-470.977 131.614V132.3L-409.631 124.588ZM-300.314 42.6718L-9.72616 6.34079H-9.26492L3.18888 0.171373H0.421345L-11.1099 5.99804L-301.698 42.329H-302.159L-447.915 114.991L-470.977 117.904V118.59L-446.07 115.505L-300.314 42.6718ZM-191.459 397.927L-45.7038 325.094L244.884 288.763H245.346L391.101 215.93L681.689 179.599H682.15L827.906 106.765L1118.49 70.4342H1118.96L1259.18 0H1256.41L1117.57 69.5773L826.983 105.908H826.522L680.767 178.742L390.179 215.073H389.717L243.962 287.906L-46.6262 324.237H-47.0875L-192.843 397.07L-470.977 432.03V432.716L-191.459 397.927Z" fill="#C1C1C1"/>
</svg>
